HIERARCHY
ROOT hip
{
  OFFSET -154.165 87.8416 12.5943
  CHANNELS 6 Xposition Yposition Zposition Zrotation Xrotation Yrotation
  JOINT abdomen
  {
    OFFSET 0 20.6881 -0.73152
    CHANNELS 3 Zrotation Xrotation Yrotation
    JOINT chest
    {
      OFFSET 0 11.7043 -0.48768
      CHANNELS 3 Zrotation Xrotation Yrotation
      JOINT neck
      {
        OFFSET 0 22.1894 -2.19456
        CHANNELS 3 Zrotation Xrotation Yrotation
        JOINT head
        {
          OFFSET -0.24384 7.07133 1.2192
          CHANNELS 3 Zrotation Xrotation Yrotation
          JOINT leftEye
          {
            OFFSET 4.14528 8.04674 8.04672
            CHANNELS 3 Zrotation Xrotation Yrotation
            End Site
            {
              OFFSET 1 0 0
            }
          }
          JOINT rightEye
          {
            OFFSET -3.6576 8.04674 8.04672
            CHANNELS 3 Zrotation Xrotation Yrotation
            End Site
            {
              OFFSET 1 0 0
            }
          }
        }
      }
      JOINT rCollar
      {
        OFFSET -2.68224 19.2634 -4.8768
        CHANNELS 3 Zrotation Xrotation Yrotation
        JOINT rShldr
        {
          OFFSET -8.77824 -1.95073 1.46304
          CHANNELS 3 Zrotation Xrotation Yrotation
          JOINT rForeArm
          {
            OFFSET -28.1742 -1.7115 0.48768
            CHANNELS 3 Zrotation Xrotation Yrotation
            JOINT rHand
            {
              OFFSET -22.5879 0.773209 7.07136
              CHANNELS 3 Zrotation Xrotation Yrotation
              JOINT rThumb1
              {
                OFFSET -1.2192 -0.487915 3.41376
                CHANNELS 3 Zrotation Xrotation Yrotation
                JOINT rThumb2
                {
                  OFFSET -3.37035 -0.52449 3.41376
                  CHANNELS 3 Zrotation Xrotation Yrotation
                  End Site
                  {
                    OFFSET -1.78271 -1.18214 1.43049
                  }
                }
              }
              JOINT rIndex1
              {
                OFFSET -7.75947 0.938293 5.60832
                CHANNELS 3 Zrotation Xrotation Yrotation
                JOINT rIndex2
                {
                  OFFSET -2.54057 -0.884171 1.56538
                  CHANNELS 3 Zrotation Xrotation Yrotation
                  End Site
                  {
                    OFFSET -1.62519 -0.234802 1.16502
                  }
                }
              }
              JOINT rMid1
              {
                OFFSET -8.24714 1.18213 3.41376
                CHANNELS 3 Zrotation Xrotation Yrotation
                JOINT rMid2
                {
                  OFFSET -3.10165 -0.590103 1.0647
                  CHANNELS 3 Zrotation Xrotation Yrotation
                  End Site
                  {
                    OFFSET -2.48547 -0.328903 0.83742
                  }
                }
              }
              JOINT rRing1
              {
                OFFSET -8.82822 0.546677 1.51678
                CHANNELS 3 Zrotation Xrotation Yrotation
                JOINT rRing2
                {
                  OFFSET -2.60934 -0.819778 -0.0198488
                  CHANNELS 3 Zrotation Xrotation Yrotation
                  End Site
                  {
                    OFFSET -2.33842 -0.294052 0.168128
                  }
                }
              }
              JOINT rPinky1
              {
                OFFSET -8.27202 -0.0477905 -0.4584
                CHANNELS 3 Zrotation Xrotation Yrotation
                JOINT rPinky2
                {
                  OFFSET -1.82734 -0.647385 -0.700984
                  CHANNELS 3 Zrotation Xrotation Yrotation
                  End Site
                  {
                    OFFSET -1.69225 -0.51767 -0.607171
                  }
                }
              }
            }
          }
        }
      }
      JOINT lCollar
      {
        OFFSET 2.68224 19.2634 -4.8768
        CHANNELS 3 Zrotation Xrotation Yrotation
        JOINT lShldr
        {
          OFFSET 8.77824 -1.95073 1.46304
          CHANNELS 3 Zrotation Xrotation Yrotation
          JOINT lForeArm
          {
            OFFSET 28.1742 -1.7115 0.48768
            CHANNELS 3 Zrotation Xrotation Yrotation
            JOINT lHand
            {
              OFFSET 22.5879 0.773209 7.07136
              CHANNELS 3 Zrotation Xrotation Yrotation
              JOINT lThumb1
              {
                OFFSET 1.2192 -0.487915 3.41376
                CHANNELS 3 Zrotation Xrotation Yrotation
                JOINT lThumb2
                {
                  OFFSET 3.37035 -0.52449 3.41376
                  CHANNELS 3 Zrotation Xrotation Yrotation
                  End Site
                  {
                    OFFSET 1.78271 -1.18214 1.43049
                  }
                }
              }
              JOINT lIndex1
              {
                OFFSET 7.75947 0.938293 5.60832
                CHANNELS 3 Zrotation Xrotation Yrotation
                JOINT lIndex2
                {
                  OFFSET 2.54057 -0.884171 1.56538
                  CHANNELS 3 Zrotation Xrotation Yrotation
                  End Site
                  {
                    OFFSET 1.62519 -0.234802 1.16502
                  }
                }
              }
              JOINT lMid1
              {
                OFFSET 8.24714 1.18213 3.41376
                CHANNELS 3 Zrotation Xrotation Yrotation
                JOINT lMid2
                {
                  OFFSET 3.10165 -0.590103 1.0647
                  CHANNELS 3 Zrotation Xrotation Yrotation
                  End Site
                  {
                    OFFSET 2.48547 -0.328903 0.83742
                  }
                }
              }
              JOINT lRing1
              {
                OFFSET 8.82822 0.546677 1.51678
                CHANNELS 3 Zrotation Xrotation Yrotation
                JOINT lRing2
                {
                  OFFSET 2.60934 -0.819778 -0.0198488
                  CHANNELS 3 Zrotation Xrotation Yrotation
                  End Site
                  {
                    OFFSET 2.33842 -0.294052 0.168128
                  }
                }
              }
              JOINT lPinky1
              {
                OFFSET 8.27202 -0.0477905 -0.4584
                CHANNELS 3 Zrotation Xrotation Yrotation
                JOINT lPinky2
                {
                  OFFSET 1.82734 -0.647385 -0.700984
                  CHANNELS 3 Zrotation Xrotation Yrotation
                  End Site
                  {
                    OFFSET 1.69225 -0.51767 -0.607171
                  }
                }
              }
            }
          }
        }
      }
    }
  }
  JOINT rButtock
  {
    OFFSET -8.77824 4.35084 1.2192
    CHANNELS 3 Zrotation Xrotation Yrotation
    JOINT rThigh
    {
      OFFSET 0 -1.70687 -2.19456
      CHANNELS 3 Zrotation Xrotation Yrotation
      JOINT rShin
      {
        OFFSET 0 -36.8199 0.73152
        CHANNELS 3 Zrotation Xrotation Yrotation
        JOINT rFoot
        {
          OFFSET 0.73152 -45.1104 -5.12064
          CHANNELS 3 Zrotation Xrotation Yrotation
          End Site
          {
            OFFSET -1.1221 -3.69964 12.103
          }
        }
      }
    }
  }
  JOINT lButtock
  {
    OFFSET 8.77824 4.35084 1.2192
    CHANNELS 3 Zrotation Xrotation Yrotation
    JOINT lThigh
    {
      OFFSET 0 -1.70687 -2.19456
      CHANNELS 3 Zrotation Xrotation Yrotation
      JOINT lShin
      {
        OFFSET 0 -36.8199 0.73152
        CHANNELS 3 Zrotation Xrotation Yrotation
        JOINT lFoot
        {
          OFFSET -0.73152 -45.1104 -5.12064
          CHANNELS 3 Zrotation Xrotation Yrotation
          End Site
          {
            OFFSET 1.1221 -3.69964 12.103
          }
        }
      }
    }
  }
}
MOTION
Frames:	8
Frame Time:	0.00833333
21.4682 83.229 26.9229 -3.498 -2.15171 85.2764 -4.1906 -1.82093 -13.1875 4.45334 -3.79563 -3.56448 -4.73866 -3.78971 -2.34149 9.97112 -9.78896 -2.26344 -0 0 0 -0 0 0 -3.20216e-015 2.73909e-013 -1.32336e-013 81.8649 15.0792 -24.2513 -18.8067 -11.5831 35.8505 1.5216e-005 0.761573 0.107051 3.22828e-010 2.99731e-009 -1.16995e-009 5.59047e-010 5.19349e-009 -2.02774e-009 3.22835e-010 2.99732e-009 -1.16997e-009 7.73091 5.47488 0.417314 3.22827e-010 2.99731e-009 -1.16995e-009 2.90554 0.965183 0.102902 3.22832e-010 2.99731e-009 -1.16995e-009 10.2786 0.731801 0.0259123 3.22827e-010 2.99731e-009 -1.16995e-009 2.22167 -0.733487 -0.20892 -3.44487e-015 2.73901e-013 -1.32676e-013 -60.6387 46.0225 -29.4138 25.1028 -21.3183 -53.3083 0.000697872 0.761887 -0.107084 5.59278e-010 3.07845e-010 8.56548e-011 9.68393e-010 5.3171e-010 1.50456e-010 5.59259e-010 3.07838e-010 8.56807e-011 -7.73091 5.47488 -0.417314 5.59278e-010 3.07846e-010 8.56661e-011 -2.90554 0.965183 -0.102902 5.59271e-010 3.07845e-010 8.5662e-011 -10.2786 0.731801 -0.0259123 5.5928e-010 3.07845e-010 8.56618e-011 -2.22167 -0.733487 0.20892 -2.03217e-016 0 -3.88251e-019 -14.8787 -58.9827 -18.0805 -0.912625 56.0743 1.08006 2.56911 28.76 -8.66454 2.03217e-016 0 3.88251e-019 -2.54352 7.16163 -4.44671 -0.136306 22.2791 -1.36532 -1.85906 -13.1886 -10.5623 
20.5412 83.1026 26.7273 -3.87671 -1.87191 85.2876 -3.88659 -2.50121 -12.9995 4.43514 -3.50429 -3.54105 -4.74778 -3.7704 -2.34708 9.77995 -9.74211 -2.28917 -0 0 0 -0 0 0 -3.64982e-014 6.16312e-013 -1.7485e-013 82.4224 15.7513 -23.4626 -19.2394 -12.0846 36.8654 0.00101474 -0.142611 -0.0200431 7.75766e-010 3.4058e-009 -1.06951e-009 1.34336e-009 5.89914e-009 -1.85331e-009 7.75773e-010 3.40581e-009 -1.06953e-009 7.73091 5.47488 0.417314 7.75764e-010 3.40581e-009 -1.06951e-009 2.90554 0.965183 0.102902 7.7577e-010 3.40581e-009 -1.06951e-009 10.2786 0.731801 0.0259123 7.75763e-010 3.40581e-009 -1.0695e-009 2.22167 -0.733487 -0.20892 -3.66569e-014 6.16307e-013 -1.75185e-013 -61.9985 46.5751 -27.7422 24.8645 -20.805 -52.4842 0.00118836 0.955712 -0.134334 3.07e-010 -2.84084e-010 7.25495e-010 5.3135e-010 -4.9274e-010 1.25766e-009 3.06988e-010 -2.84083e-010 7.25514e-010 -7.73091 5.47488 -0.417314 3.07001e-010 -2.84078e-010 7.25502e-010 -2.90554 0.965183 -0.102902 3.06996e-010 -2.84078e-010 7.25499e-010 -10.2786 0.731801 -0.0259123 3.07004e-010 -2.84079e-010 7.25496e-010 -2.22167 -0.733487 0.20892 -2.03217e-016 0 -3.88251e-019 -12.623 -56.3457 -16.1409 -0.80922 54.1168 1.04014 1.61901 24.8412 -7.37511 2.03217e-016 0 3.88251e-019 -1.96722 7.05501 -4.40949 -0.11827 22.6951 -1.26727 -1.94448 -12.5769 -11.0882 
19.5964 82.9971 26.5095 -4.23412 -1.50651 85.3285 -3.49162 -3.16828 -12.7594 4.41255 -3.21952 -3.50202 -4.75771 -3.76815 -2.34573 9.56409 -9.67392 -2.30275 -0 0 0 -0 0 0 -6.29398e-014 8.95215e-013 -2.13341e-013 82.975 16.561 -22.6036 -19.6816 -12.6151 37.9204 -0.000662448 -1.05035 -0.147648 1.1517e-009 3.71515e-009 -9.4974e-010 1.9945e-009 6.433e-009 -1.64534e-009 1.1517e-009 3.71516e-009 -9.49771e-010 7.73091 5.47488 0.417314 1.15169e-009 3.71515e-009 -9.49742e-010 2.90554 0.965183 0.102902 1.1517e-009 3.71515e-009 -9.49742e-010 10.2786 0.731801 0.0259123 1.15169e-009 3.71515e-009 -9.49736e-010 2.22167 -0.733487 -0.20892 -6.30068e-014 8.95213e-013 -2.13666e-013 -63.4825 47.05 -25.9363 24.5912 -20.2403 -51.5606 0.00189652 1.20373 -0.169204 3.4868e-011 -8.71657e-010 1.34181e-009 6.00908e-011 -1.50954e-009 2.32408e-009 3.48636e-011 -8.71648e-010 1.34182e-009 -7.73091 5.47488 -0.417314 3.48694e-011 -8.71646e-010 1.34181e-009 -2.90554 0.965183 -0.102902 3.48665e-011 -8.71646e-010 1.34181e-009 -10.2786 0.731801 -0.0259123 3.4874e-011 -8.71647e-010 1.34181e-009 -2.22167 -0.733487 0.20892 -2.03217e-016 0 -3.88251e-019 -10.5283 -53.7698 -14.4769 -0.715964 52.2471 1.01004 0.804044 20.5342 -6.14781 2.03217e-016 0 3.88251e-019 -1.3149 6.78213 -4.32636 -0.0955964 23.3536 -1.17128 -1.98717 -11.6751 -11.6727 
18.6404 82.9089 26.2705 -4.54628 -1.01274 85.4225 -2.97457 -3.74631 -12.427 4.37431 -2.98851 -3.43377 -4.77256 -3.78666 -2.3345 9.34312 -9.60039 -2.29357 -0 0 0 -0 0 0 -6.5995e-014 9.54067e-013 -2.35212e-013 83.4992 17.563 -21.6344 -20.1322 -13.1788 39.0016 -0.0044144 -1.89675 -0.26667 1.26432e-009 3.80912e-009 -8.5666e-010 2.19013e-009 6.59472e-009 -1.48393e-009 1.26433e-009 3.80913e-009 -8.56692e-010 7.73091 5.47488 0.417314 1.26432e-009 3.80912e-009 -8.56663e-010 2.90554 0.965183 0.102902 1.26433e-009 3.80912e-009 -8.56663e-010 10.2786 0.731801 0.0259123 1.26432e-009 3.80912e-009 -8.56657e-010 2.22167 -0.733487 -0.20892 -6.60024e-014 9.54067e-013 -2.3551e-013 -65.0663 47.3932 -24.0257 24.2824 -19.6341 -50.5154 0.00272415 1.49015 -0.209475 -1.58288e-010 -1.21269e-009 1.67394e-009 -2.74036e-010 -2.09951e-009 2.89869e-009 -1.58288e-010 -1.21268e-009 1.67394e-009 -7.73091 5.47488 -0.417314 -1.58287e-010 -1.21268e-009 1.67394e-009 -2.90554 0.965183 -0.102902 -1.58289e-010 -1.21268e-009 1.67393e-009 -10.2786 0.731801 -0.0259123 -1.58281e-010 -1.21268e-009 1.67393e-009 -2.22167 -0.733487 0.20892 -2.03217e-016 0 -3.88251e-019 -8.57653 -51.3825 -13.1213 -0.633989 50.4282 0.971402 0.254866 16.5718 -5.27671 2.03217e-016 0 3.88251e-019 -0.575567 6.23254 -4.1372 -0.0656883 24.4021 -1.09234 -1.93919 -10.2836 -12.3377 
17.6785 82.8369 26.0107 -4.8292 -0.431141 85.6922 -2.32199 -4.25961 -11.9951 4.32258 -2.82755 -3.33474 -4.80025 -3.83377 -2.31381 9.11528 -9.49545 -2.26087 -0 0 0 -0 0 0 -3.26813e-014 6.83523e-013 -2.35163e-013 83.9775 18.7607 -20.5724 -20.5856 -13.7681 40.1146 -0.00894913 -2.71784 -0.3822 9.75409e-010 3.60101e-009 -8.06576e-010 1.69125e-009 6.23465e-009 -1.39745e-009 9.75416e-010 3.60102e-009 -8.06603e-010 7.73091 5.47488 0.417314 9.75405e-010 3.60101e-009 -8.0658e-010 2.90554 0.965183 0.102902 9.75414e-010 3.60101e-009 -8.0658e-010 10.2786 0.731801 0.0259123 9.75402e-010 3.60101e-009 -8.06574e-010 2.22167 -0.733487 -0.20892 -3.26776e-014 6.83524e-013 -2.35402e-013 -66.7334 47.6265 -22.0254 23.9213 -18.955 -49.3321 0.00405545 1.79479 -0.252337 -2.15943e-010 -1.19618e-009 1.60887e-009 -3.72776e-010 -2.07034e-009 2.78575e-009 -2.15942e-010 -1.19617e-009 1.60888e-009 -7.73091 5.47488 -0.417314 -2.15942e-010 -1.19617e-009 1.60887e-009 -2.90554 0.965183 -0.102902 -2.15945e-010 -1.19617e-009 1.60887e-009 -10.2786 0.731801 -0.0259123 -2.15935e-010 -1.19617e-009 1.60886e-009 -2.22167 -0.733487 0.20892 -2.03217e-016 0 -3.88251e-019 -6.69281 -49.2064 -12.074 -0.565869 48.6033 0.922609 -0.112979 12.9248 -4.78536 2.03217e-016 0 3.88251e-019 0.282237 5.38134 -3.83654 -0.0271027 25.8837 -1.03233 -1.80211 -8.43348 -13.1801 
16.7177 82.7828 25.7294 -5.09466 0.148679 86.1372 -1.54966 -4.73403 -11.483 4.26153 -2.71023 -3.21147 -4.83627 -3.9052 -2.28484 8.87225 -9.36067 -2.20966 -0 0 0 -0 0 0 2.53262e-014 1.89608e-013 -2.20561e-013 84.4014 20.1331 -19.4262 -21.0383 -14.3767 41.2666 -0.0146081 -3.53042 -0.496708 4.13836e-010 3.17139e-009 -7.73603e-010 7.20773e-010 5.49172e-009 -1.34084e-009 4.13843e-010 3.1714e-009 -7.73622e-010 7.73091 5.47488 0.417314 4.13833e-010 3.17139e-009 -7.73607e-010 2.90554 0.965183 0.102902 4.13841e-010 3.17139e-009 -7.73608e-010 10.2786 0.731801 0.0259123 4.1383e-010 3.17139e-009 -7.73603e-010 2.22167 -0.733487 -0.20892 2.53158e-014 1.89611e-013 -2.20716e-013 -68.4805 47.7553 -19.9306 23.4977 -18.1889 -48.033 0.00606241 2.13137 -0.299727 -2.00862e-010 -9.6677e-010 1.30014e-009 -3.45035e-010 -1.67245e-009 2.25098e-009 -2.00863e-010 -9.66761e-010 1.30015e-009 -7.73091 5.47488 -0.417314 -2.00863e-010 -9.66763e-010 1.30014e-009 -2.90554 0.965183 -0.102902 -2.00867e-010 -9.66763e-010 1.30014e-009 -10.2786 0.731801 -0.0259123 -2.00855e-010 -9.66763e-010 1.30013e-009 -2.22167 -0.733487 0.20892 -2.03217e-016 0 -3.88251e-019 -4.79577 -47.191 -11.2101 -0.510575 46.8076 0.872257 -0.411106 9.28938 -4.49241 2.03217e-016 0 3.88251e-019 1.25377 4.28507 -3.45488 0.0174944 27.7184 -0.98415 -1.55095 -6.21348 -14.1656 
15.7676 82.7504 25.4302 -5.30903 0.717719 86.6217 -0.67279 -5.0953 -10.8898 4.1829 -2.61964 -3.0624 -4.86601 -3.98658 -2.24572 8.62376 -9.25346 -2.13797 -0 0 0 -0 0 0 8.75736e-014 -3.61169e-013 -1.97804e-013 84.749 21.6996 -18.1404 -21.4919 -15.0115 42.4478 -0.0213236 -4.24082 -0.597036 -2.06037e-010 2.6549e-009 -7.40461e-010 -3.50691e-010 4.59846e-009 -1.28407e-009 -2.06031e-010 2.6549e-009 -7.4047e-010 7.73091 5.47488 0.417314 -2.0604e-010 2.6549e-009 -7.40465e-010 2.90554 0.965183 0.102902 -2.06034e-010 2.6549e-009 -7.40466e-010 10.2786 0.731801 0.0259123 -2.06044e-010 2.6549e-009 -7.40461e-010 2.22167 -0.733487 -0.20892 8.75428e-014 -3.61164e-013 -1.97885e-013 -70.2809 47.7003 -17.7583 23.0237 -17.3738 -46.6502 0.00847607 2.53506 -0.356563 -1.93154e-010 -6.65725e-010 8.86834e-010 -3.30207e-010 -1.1507e-009 1.53548e-009 -1.93158e-010 -6.65721e-010 8.86842e-010 -7.73091 5.47488 -0.417314 -1.93156e-010 -6.65723e-010 8.86833e-010 -2.90554 0.965183 -0.102902 -1.93163e-010 -6.65724e-010 8.86834e-010 -10.2786 0.731801 -0.0259123 -1.93148e-010 -6.65722e-010 8.86826e-010 -2.22167 -0.733487 0.20892 -2.03217e-016 0 -3.88251e-019 -2.86613 -45.3529 -10.3835 -0.466412 45.1427 0.819259 -0.648411 5.99777 -4.33677 2.03217e-016 0 3.88251e-019 2.30114 2.95508 -2.98667 0.0655606 29.8694 -0.949924 -1.0976 -3.51248 -15.131 
14.8347 82.7399 25.1147 -5.43478 1.34057 87.0396 0.289601 -5.26837 -10.2148 4.07832 -2.53887 -2.886 -4.87489 -4.06353 -2.19462 8.37988 -9.23127 -2.04378 -0 0 0 -0 0 0 1.33607e-013 -8.02298e-013 -1.73291e-013 84.9879 23.4789 -16.6546 -21.9479 -15.6794 43.649 -0.027815 -4.75536 -0.669876 -6.69853e-010 2.18616e-009 -6.89869e-010 -1.15254e-009 3.78742e-009 -1.19705e-009 -6.69848e-010 2.18617e-009 -6.89872e-010 7.73091 5.47488 0.417314 -6.69856e-010 2.18616e-009 -6.89872e-010 2.90554 0.965183 0.102902 -6.69851e-010 2.18616e-009 -6.89873e-010 10.2786 0.731801 0.0259123 -6.6986e-010 2.18617e-009 -6.89869e-010 2.22167 -0.733487 -0.20892 1.33568e-013 -8.02293e-013 -1.7334e-013 -72.0895 47.382 -15.5403 22.5172 -16.5541 -45.2112 0.0113552 3.04099 -0.427788 -2.72927e-010 -4.34314e-010 5.08055e-010 -4.67685e-010 -7.49965e-010 8.80343e-010 -2.72932e-010 -4.34314e-010 5.08065e-010 -7.73091 5.47488 -0.417314 -2.72929e-010 -4.34316e-010 5.08055e-010 -2.90554 0.965183 -0.102902 -2.72937e-010 -4.34317e-010 5.08056e-010 -10.2786 0.731801 -0.0259123 -2.72921e-010 -4.34315e-010 5.08049e-010 -2.22167 -0.733487 0.20892 -2.03217e-016 0 -3.88251e-019 -0.911157 -43.703 -9.46857 -0.431292 43.7102 0.762096 -0.820538 3.38047 -4.25757 2.03217e-016 0 3.88251e-019 3.38876 1.40277 -2.42595 0.11553 32.3 -0.932241 -0.375899 -0.215651 -15.9275 
